<svg xmlns="http://www.w3.org/2000/svg" width="43.2" height="39" viewBox="0 0 43.2 39">
  <g id="agriculture-analytics" transform="translate(-3 -3)">
    <path id="Path_1220" data-name="Path 1220" d="M36.376,32.055l3.291,2.193A1.5,1.5,0,0,0,41.7,33.9l4.5-6-2.4-1.8-3.65,4.866-3.318-2.214a1.5,1.5,0,0,0-2.054.375L30,35.819V24H27V39a3,3,0,0,0,3,3H45V39H31.415Z" fill="#fff"/>
    <path id="Path_1221" data-name="Path 1221" d="M3,31.5H24v3H3Z" fill="#fff"/>
    <path id="Path_1222" data-name="Path 1222" d="M3,39H24v3H3Z" fill="#fff"/>
    <path id="Path_1223" data-name="Path 1223" d="M16.5,24V16.5H18a6.008,6.008,0,0,0,6-6V6H19.5a5.967,5.967,0,0,0-4.12,1.66A9,9,0,0,0,7.5,3H3V7.5a9.01,9.01,0,0,0,9,9h1.5V24H3v3H24V24Zm3-15H21v1.5a3,3,0,0,1-3,3H16.5V12a3,3,0,0,1,3-3ZM12,13.5a6.007,6.007,0,0,1-6-6V6H7.5a6.007,6.007,0,0,1,6,6v1.5Z" fill="#fff"/>
  </g>
</svg>
