<svg xmlns="http://www.w3.org/2000/svg" width="38.406" height="33.6" viewBox="0 0 38.406 33.6">
  <g id="building-retail-20-regular" transform="translate(-4.8 -7.2)">
    <g id="Group_1054" data-name="Group 1054">
      <path id="Path_1215" data-name="Path 1215" d="M13.2,16.8A1.2,1.2,0,0,0,12,18v7.2a1.2,1.2,0,0,0,1.2,1.2H34.8A1.2,1.2,0,0,0,36,25.2V18a1.2,1.2,0,0,0-1.2-1.2ZM14.4,24V19.2H33.6V24Zm13.2,4.8A1.2,1.2,0,0,0,26.4,30v4.8A1.2,1.2,0,0,0,27.6,36h7.2A1.2,1.2,0,0,0,36,34.8V30a1.2,1.2,0,0,0-1.2-1.2Zm1.2,4.8V31.2h4.8v2.4ZM4.8,10.8A3.6,3.6,0,0,1,8.4,7.2H39.6a3.6,3.6,0,0,1,1.2,7V39.6a1.2,1.2,0,0,1-1.2,1.2H8.4a1.2,1.2,0,0,1-1.2-1.2V14.2a3.6,3.6,0,0,1-2.4-3.4ZM8.4,9.6a1.2,1.2,0,1,0,0,2.4H39.6a1.2,1.2,0,1,0,0-2.4Zm1.2,4.8v24H12V30a1.2,1.2,0,0,1,1.2-1.2h9.6A1.2,1.2,0,0,1,24,30v8.4H38.4v-24Zm4.8,24h7.2V31.2H14.4Z" fill="#fff"/>
    </g>
  </g>
</svg>
