<svg xmlns="http://www.w3.org/2000/svg" width="48" height="44" viewBox="0 0 48 44">
  <g id="car" transform="translate(0 -2)">
    <path id="Path_1217" data-name="Path 1217" d="M2,21.994A1.989,1.989,0,0,1,4,20H44a2.008,2.008,0,0,1,2,1.994V34.006A1.989,1.989,0,0,1,44,36H4a2.008,2.008,0,0,1-2-1.994ZM12,4H36l8,16H4ZM24,21l6-11M6,36h6v5.98A2,2,0,0,1,10,44H8a2,2,0,0,1-2-2.02Zm30,0h6v5.98A2,2,0,0,1,40,44H38a2,2,0,0,1-2-2.02ZM10,30a2,2,0,1,0-2-2A2,2,0,0,0,10,30Zm28,0a2,2,0,1,0-2-2A2,2,0,0,0,38,30ZM24,26v4m4-4v4m-8-4v4" fill="none" stroke="#fff" stroke-width="4"/>
  </g>
</svg>
