<svg xmlns="http://www.w3.org/2000/svg" width="42" height="42" viewBox="0 0 42 42">
  <g id="finance" transform="translate(-3 -3)">
    <path id="Path_1218" data-name="Path 1218" d="M3,42H45v3H3Z" fill="#fff"/>
    <path id="Path_1219" data-name="Path 1219" d="M40.5,16.5A1.5,1.5,0,0,0,42,15V10.5a1.5,1.5,0,0,0-.99-1.41l-16.5-6a1.5,1.5,0,0,0-1.02,0l-16.5,6A1.5,1.5,0,0,0,6,10.5V15a1.5,1.5,0,0,0,1.5,1.5H9V36H6v3H42V36H39V16.5ZM9,11.55,24,6.09l15,5.46V13.5H9ZM27,36H21V16.5h6ZM12,16.5h6V36H12ZM36,36H30V16.5h6Z" fill="#fff"/>
  </g>
</svg>
