<svg xmlns="http://www.w3.org/2000/svg" width="43" height="35.621" viewBox="0 0 43 35.621">
  <g id="healthcare" transform="translate(-2.5 -6.5)">
    <g id="Group_1053" data-name="Group 1053">
      <path id="Path_1210" data-name="Path 1210" d="M36,40l7.648-7.648A1.2,1.2,0,0,0,44,31.5V21a3,3,0,0,0-3-3h0a3,3,0,0,0-3,3v9" fill="none" stroke="#fff" stroke-linecap="round" stroke-linejoin="round" stroke-width="3"/>
      <path id="Path_1211" data-name="Path 1211" d="M36,32l1.716-1.716A.968.968,0,0,0,38,29.6h0a.97.97,0,0,0-.536-.866l-.886-.442a4,4,0,0,0-4.616.748l-1.79,1.79A4,4,0,0,0,29,33.656V40" fill="none" stroke="#fff" stroke-linecap="round" stroke-linejoin="round" stroke-width="3"/>
      <path id="Path_1212" data-name="Path 1212" d="M12,40,4.352,32.352A1.2,1.2,0,0,1,4,31.5V21a3,3,0,0,1,3-3H7a3,3,0,0,1,3,3v9" fill="none" stroke="#fff" stroke-linecap="round" stroke-linejoin="round" stroke-width="3"/>
      <path id="Path_1213" data-name="Path 1213" d="M12,32l-1.716-1.716A.97.97,0,0,1,10,29.6h0a.972.972,0,0,1,.536-.866l.886-.442a4,4,0,0,1,4.616.748l1.79,1.79A4,4,0,0,1,19,33.656V40" fill="none" stroke="#fff" stroke-linecap="round" stroke-linejoin="round" stroke-width="3"/>
      <path id="Path_1214" data-name="Path 1214" d="M27.334,24H20.666V19.334H16V12.666h4.666V8h6.668v4.666H32v6.668H27.334Z" fill="none" stroke="#fff" stroke-linecap="round" stroke-linejoin="round" stroke-width="3"/>
    </g>
  </g>
</svg>
