<svg xmlns="http://www.w3.org/2000/svg" width="48.005" height="42.004" viewBox="0 0 48.005 42.004">
  <g id="Media" transform="translate(0 -3)">
    <path id="Path_1216" data-name="Path 1216" d="M48.005,15.7V36.754a4.407,4.407,0,0,1-.527,2.156,5.6,5.6,0,0,1-1.371,1.653,6.236,6.236,0,0,1-1.922,1.067,6.523,6.523,0,0,1-4.36,0A6.236,6.236,0,0,1,37.9,40.563a5.6,5.6,0,0,1-1.371-1.653A4.407,4.407,0,0,1,36,36.754a4.475,4.475,0,0,1,.527-2.168A5.408,5.408,0,0,1,37.9,32.933a6.373,6.373,0,0,1,1.922-1.055A6.543,6.543,0,0,1,45,32.23V19.549L30,23.3V39.754a4.407,4.407,0,0,1-.527,2.156A5.6,5.6,0,0,1,28.1,43.563a6.236,6.236,0,0,1-1.922,1.067,6.523,6.523,0,0,1-4.36,0A6.236,6.236,0,0,1,19.9,43.563a5.6,5.6,0,0,1-1.371-1.653A4.407,4.407,0,0,1,18,39.754a4.475,4.475,0,0,1,.527-2.168A5.408,5.408,0,0,1,19.9,35.934a6.373,6.373,0,0,1,1.922-1.055A6.543,6.543,0,0,1,27,35.23V20.955ZM24,42a3.872,3.872,0,0,0,1-.141,3.5,3.5,0,0,0,.973-.422,2.538,2.538,0,0,0,.738-.7,1.8,1.8,0,0,0,0-1.969,2.538,2.538,0,0,0-.738-.7A3.5,3.5,0,0,0,25,37.645a3.6,3.6,0,0,0-1.992,0,3.5,3.5,0,0,0-.973.422,2.538,2.538,0,0,0-.738.7,1.8,1.8,0,0,0,0,1.969,2.538,2.538,0,0,0,.738.7,3.5,3.5,0,0,0,.973.422A3.872,3.872,0,0,0,24,42Zm18-3a3.872,3.872,0,0,0,1-.141,3.5,3.5,0,0,0,.973-.422,2.538,2.538,0,0,0,.738-.7,1.8,1.8,0,0,0,0-1.969,2.538,2.538,0,0,0-.738-.7A3.5,3.5,0,0,0,43,34.644a3.6,3.6,0,0,0-1.992,0,3.5,3.5,0,0,0-.973.422,2.538,2.538,0,0,0-.738.7,1.8,1.8,0,0,0,0,1.969,2.538,2.538,0,0,0,.738.7,3.5,3.5,0,0,0,.973.422A3.872,3.872,0,0,0,42,39ZM9,15H6V12H9ZM6,18H9v3H6Zm21-6h3v3H27ZM24,30H0V3H36V15l-3,.75V6H30V9H27V6H9V9H6V6H3V27H6V24H9v3H24Z" fill="#fff"/>
  </g>
</svg>
