<svg id="Group_1061" data-name="Group 1061" xmlns="http://www.w3.org/2000/svg" xmlns:xlink="http://www.w3.org/1999/xlink" width="313.48" height="314.066" viewBox="0 0 313.48 314.066">
  <defs>
    <clipPath id="clip-path">
      <rect id="Rectangle_440" data-name="Rectangle 440" width="313.48" height="314.066" fill="red"/>
    </clipPath>
  </defs>
  <g id="Group_1060" data-name="Group 1060" clip-path="url(#clip-path)">
    <path id="Path_1225" data-name="Path 1225" d="M400.228,314.434q2.085-.457,4.148-.967l104.318-151.7L421.941,307.992q2.194-.829,4.357-1.72l84.866-143.049L442.8,298.308q2.3-1.278,4.546-2.628l66.378-131.156L462.4,285.386q2.4-1.855,4.731-3.8L516.36,165.654l-36,103.535q2.522-2.654,4.923-5.422l33.792-97.175-22.7,82.767q2.738-4.014,5.227-8.2l20.247-73.811-11.627,57.126a156.033,156.033,0,0,0,6.4-17.08l6.167-30.3a159.184,159.184,0,0,0,0-32.391l-6.167-30.3a156.069,156.069,0,0,0-6.4-17.08l11.627,57.126L501.6,80.638q-2.491-4.186-5.227-8.2l22.7,82.767L485.28,58.026q-2.4-2.769-4.923-5.422l36,103.535L467.126,40.206q-2.328-1.944-4.731-3.8l51.326,120.861L447.343,26.114q-2.248-1.352-4.546-2.628l68.368,135.085L426.3,15.522q-2.162-.891-4.357-1.72l86.752,146.229L404.376,8.328q-2.063-.512-4.148-.968L505.806,160.9Z" transform="translate(-210.132 -3.864)" fill="red"/>
    <path id="Path_1226" data-name="Path 1226" d="M353.523,314.095q1.97-.144,3.926-.337L481.206,157.329,357.449.9q-1.956-.192-3.926-.337L477.547,157.329Z" transform="translate(-185.61 -0.296)" fill="red"/>
    <path id="Path_1227" data-name="Path 1227" d="M306.648,313.861q1.838.123,3.687.2L452.643,157.033,310.335,0q-1.85.081-3.687.2L448.77,157.033Z" transform="translate(-160.999)" fill="red"/>
    <path id="Path_1228" data-name="Path 1228" d="M260.413,313.654q1.707.36,3.427.681L423.915,159.854,263.84,5.372q-1.72.323-3.427.681l159.369,153.8Z" transform="translate(-136.725 -2.82)" fill="red"/>
    <path id="Path_1229" data-name="Path 1229" d="M215.747,313.823q1.562.569,3.14,1.106L395.355,166.084,218.887,17.239q-1.577.536-3.14,1.106L390.9,166.084Z" transform="translate(-113.274 -9.051)" fill="red"/>
    <path id="Path_1230" data-name="Path 1230" d="M173.511,314.356q1.409.752,2.833,1.479L367.2,175.577,176.344,35.32q-1.426.724-2.833,1.479L362.355,175.577Z" transform="translate(-91.099 -18.544)" fill="red"/>
    <path id="Path_1231" data-name="Path 1231" d="M134.413,315.229q1.251.911,2.519,1.8L339.506,188.09,136.932,59.153q-1.27.887-2.519,1.8L334.161,188.09Z" transform="translate(-70.571 -31.057)" fill="red"/>
    <path id="Path_1232" data-name="Path 1232" d="M99.143,316.409q1.085,1.048,2.191,2.073L312.145,203.344,101.334,88.207q-1.1,1.027-2.191,2.073L306.159,203.344Z" transform="translate(-52.053 -46.311)" fill="red"/>
    <path id="Path_1233" data-name="Path 1233" d="M68.325,317.861c.608.776,1.227,1.543,1.85,2.307l214.491-99.139L70.175,121.889c-.622.764-1.242,1.531-1.85,2.307l209.5,96.833Z" transform="translate(-35.873 -63.995)" fill="red"/>
    <path id="Path_1234" data-name="Path 1234" d="M42.56,319.547q.73,1.26,1.481,2.505L256.02,240.8,44.041,159.548q-.753,1.245-1.481,2.505L248,240.8Z" transform="translate(-22.345 -83.768)" fill="red"/>
    <path id="Path_1235" data-name="Path 1235" d="M22.341,321.44c.362.891.728,1.78,1.106,2.662L223.9,262.292,23.447,200.482c-.378.882-.744,1.771-1.106,2.662l191.822,59.148Z" transform="translate(-11.73 -105.259)" fill="red"/>
    <path id="Path_1236" data-name="Path 1236" d="M8.056,323.5c.233.93.478,1.854.728,2.777l174.2-41.186L8.784,243.9c-.25.923-.495,1.847-.728,2.777L170.509,285.09Z" transform="translate(-4.23 -128.057)" fill="red"/>
    <path id="Path_1237" data-name="Path 1237" d="M0,325.678c.1.954.207,1.906.326,2.855l118.6-19.776L.326,288.98c-.119.948-.224,1.9-.326,2.855l101.477,16.922Z" transform="translate(0 -151.723)" fill="red"/>
  </g>
</svg>
