<svg xmlns="http://www.w3.org/2000/svg" xmlns:xlink="http://www.w3.org/1999/xlink" width="298.385" height="368.727" viewBox="0 0 298.385 368.727">
  <defs>
    <clipPath id="clip-path">
      <rect id="Rectangle_4" data-name="Rectangle 4" width="298.385" height="368.727" transform="translate(0)" fill="none"/>
    </clipPath>
  </defs>
  <g id="Group_6" data-name="Group 6" transform="translate(714 -318)">
    <g id="Group_5" data-name="Group 5" transform="translate(-714 318)" clip-path="url(#clip-path)">
      <path id="Path_19" data-name="Path 19" d="M377.436,154.956l-17.251,17.251-4.858-4.859L380.872,141.8l25.546,25.546-4.859,4.859-17.251-17.251v43.822q-1.707-.09-3.436-.092t-3.436.092Zm0,215.66-17.251-17.251-4.858,4.859,25.545,25.545,25.546-25.545-4.859-4.859-17.251,17.251V326.793q-1.707.09-3.436.092t-3.436-.092Z" transform="translate(-266.85 -78.422)" fill-rule="evenodd"/>
      <path id="Path_20" data-name="Path 20" d="M269.173,191.176l-6.315,23.565-6.636-1.778,9.35-34.9,34.9,9.35-1.778,6.637-23.565-6.315,21.905,37.941a64.057,64.057,0,0,0-5.947,3.444ZM377,377.944l-23.565-6.314-1.778,6.637,34.9,9.35,9.35-34.9-6.637-1.779-6.314,23.565-21.91-37.948A64,64,0,0,1,355.1,340Z" transform="translate(-212.042 -98.478)" fill="#ff2525" fill-rule="evenodd"/>
      <path id="Path_21" data-name="Path 21" d="M187.739,275.125l6.314,23.566-6.637,1.778-9.35-34.9,34.9-9.35,1.778,6.637-23.565,6.314,37.948,21.91a63.9,63.9,0,0,0-3.443,5.947ZM374.506,382.956l-23.565,6.314,1.778,6.637,34.9-9.35-9.35-34.9-6.637,1.778L377.942,377,340,355.1a63.99,63.99,0,0,1-3.443,5.947Z" transform="translate(-168.818 -141.701)" fill-rule="evenodd"/>
      <path id="Path_22" data-name="Path 22" d="M147.994,384.309l17.251,17.251-4.858,4.858L141.8,387.835V373.913l18.584-18.585,4.858,4.859-17.251,17.251h43.822q-.09,1.707-.092,3.436t.092,3.436Zm215.66,0L346.4,401.56l4.859,4.858,25.546-25.546-25.546-25.545-4.859,4.859,17.251,17.251H319.832q.09,1.707.092,3.436t-.092,3.436Z" transform="translate(-141.802 -196.51)" fill="#ff2525" fill-rule="evenodd"/>
      <path id="Path_23" data-name="Path 23" d="M191.176,382.956l23.566,6.314-1.778,6.637-34.9-9.35,9.35-34.9,6.638,1.778L187.74,377,225.68,355.1a64.06,64.06,0,0,0,3.444,5.947ZM377.943,275.125l-6.314,23.565,6.637,1.779,9.35-34.9-34.9-9.35-1.779,6.637,23.565,6.314-37.948,21.91A64.117,64.117,0,0,1,340,297.031Z" transform="translate(-168.82 -141.701)" fill-rule="evenodd"/>
      <path id="Path_24" data-name="Path 24" d="M275.124,377.943l23.566-6.314,1.778,6.637-34.9,9.35-9.35-34.9,6.637-1.779,6.314,23.565,21.909-37.948A63.957,63.957,0,0,0,297.03,340Zm107.83-186.767,6.314,23.565,6.637-1.778-9.35-34.9-34.9,9.35,1.778,6.637L377,187.74,355.1,225.681a64.281,64.281,0,0,1,5.947,3.443Z" transform="translate(-212.042 -98.478)" fill="#ff2525" fill-rule="evenodd"/>
      <path id="Path_25" data-name="Path 25" d="M385.186,43.483,374.1,32.4l-4.858,4.858,19.378,19.378L407.9,37.363,403.037,32.5,392.058,43.483V.045C390.9.023,389.736,0,388.57,0c-1.131,0-2.257.022-3.384.042Zm6.872,325.2c-1.161.022-2.322.044-3.488.044-1.131,0-2.257-.022-3.384-.042V325.246L374.1,336.329l-4.858-4.859,19.378-19.378L407.9,331.365l-4.858,4.859-10.978-10.978Z" transform="translate(-274.548 -0.001)" fill="#ff2525" fill-rule="evenodd"/>
      <path id="Path_26" data-name="Path 26" d="M302.6,55.818l-13.574-7.837-3.436,5.95,23.733,13.7,13.627-23.6L317,40.594,309.242,54.04l-11.253-42q-3.344.825-6.641,1.765ZM393.424,368.21q-3.294.948-6.64,1.77l-11.254-42-7.837,13.573-5.951-3.435,13.7-23.732,23.6,13.627-3.435,5.951L382.168,326.2Z" transform="translate(-228.314 -6.66)" fill-rule="evenodd"/>
      <path id="Path_27" data-name="Path 27" d="M221.229,92.464l-15.139-4.057-1.778,6.637,26.47,7.092,7.054-26.327L231.2,74.031l-4.018,15L205.445,51.381q-3.009,1.665-5.952,3.435ZM389.8,370.689q-2.939,1.775-5.951,3.437L362.11,336.478l-4.057,15.14-6.637-1.779,7.092-26.47,26.327,7.054-1.778,6.637-15-4.018Z" transform="translate(-180.578 -28.416)" fill="#ff2525" fill-rule="evenodd"/>
      <path id="Path_28" data-name="Path 28" d="M127.371,168.069H115.36v6.871H139.1V147.684H132.23V163.21l-16.87-16.87v9.718Zm234.813,225.1q-2.383,2.475-4.858,4.86l-30.718-30.719v15.674h-6.871v-27.4h27.256v6.871H331.466Z" transform="translate(-115.36 -80.932)" fill-rule="evenodd"/>
      <path id="Path_29" data-name="Path 29" d="M102.138,571.873q-1.666,3.009-3.435,5.952L61.054,556.088l4.057,15.14-6.637,1.778-7.093-26.47,26.327-7.054,1.778,6.636-15,4.018Z" transform="translate(173.282 -298.354)" fill="#ff2525" fill-rule="evenodd"/>
      <path id="Path_30" data-name="Path 30" d="M67.633,480.806q-.825,3.344-1.765,6.641l-42.01-11.256,7.837,13.573-5.95,3.435-13.7-23.732,23.6-13.628,3.435,5.951-13.446,7.762Z" transform="translate(225.37 -252.097)" fill-rule="evenodd"/>
      <path id="Path_31" data-name="Path 31" d="M56.591,385.082c.022,1.161.044,2.322.044,3.489,0,1.131-.022,2.257-.043,3.383H13.153l11.083,11.083L19.378,407.9,0,388.518l19.273-19.273,4.858,4.858L13.153,385.082Z" transform="translate(241.75 -204.206)" fill="#ff2525" fill-rule="evenodd"/>
      <path id="Path_32" data-name="Path 32" d="M65.921,291.222q.948,3.294,1.77,6.64l-42,11.254,13.574,7.836L35.83,322.9,12.1,309.2l13.627-23.6,5.951,3.436-7.763,13.445Z" transform="translate(225.287 -157.946)" fill-rule="evenodd"/>
      <path id="Path_33" data-name="Path 33" d="M98.817,199.494q1.775,2.939,3.437,5.951L64.6,227.182l15.139,4.057-1.778,6.637L51.5,230.783l7.054-26.327,6.637,1.778-4.018,15Z" transform="translate(173.115 -110.328)" fill="#ff2525" fill-rule="evenodd"/>
      <path id="Path_34" data-name="Path 34" d="M132.318,350.175v15.674h6.871v-27.4H115.524v6.871h11.935l-11.935,11.935v9.718Zm225.1-234.814q2.475,2.384,4.86,4.858l-30.719,30.72h15.673v6.871h-27.4V130.554H326.7V146.08Z" transform="translate(-115.524 -63.799)" fill-rule="evenodd"/>
      <path id="Path_35" data-name="Path 35" d="M227.38,336.48l4.057,15.139,6.636-1.778-7.092-26.47-26.327,7.055,1.778,6.637,15-4.018L199.7,370.69q2.939,1.775,5.95,3.437Zm156.667-285.1q3.01,1.666,5.952,3.435L368.262,92.467,383.4,88.41l1.778,6.637-26.47,7.092-7.054-26.327,6.637-1.778,4.018,15Z" transform="translate(-180.871 -28.416)" fill="#ff2525" fill-rule="evenodd"/>
      <path id="Path_36" data-name="Path 36" d="M309.054,327.979l7.837,13.574,5.95-3.435-13.7-23.732-23.6,13.628,3.436,5.95,13.445-7.763L291.16,368.209q3.295.948,6.64,1.77ZM386.594,12.042q3.343.826,6.642,1.765L381.98,55.817l13.574-7.837,3.435,5.95-23.733,13.7-13.627-23.6,5.95-3.436,7.763,13.446Z" transform="translate(-228.227 -6.66)" fill-rule="evenodd"/>
    </g>
  </g>
</svg>
