<svg xmlns="http://www.w3.org/2000/svg" xmlns:xlink="http://www.w3.org/1999/xlink" width="157.406" height="60.5" viewBox="0 0 157.406 60.5">
  <defs>
    <clipPath id="clip-path">
      <rect id="Rectangle_10" data-name="Rectangle 10" width="157.406" height="60.5" fill="none"/>
    </clipPath>
  </defs>
  <g id="Group_11" data-name="Group 11" transform="translate(0 0)">
    <g id="Group_10" data-name="Group 10" transform="translate(0 0)" clip-path="url(#clip-path)">
      <path id="Path_45" data-name="Path 45" d="M183.811,20.2a1.834,1.834,0,0,1,1.834-1.835h7.348a1.836,1.836,0,0,1,1.834,1.835v3.673a1.839,1.839,0,0,0,3.677,0V5.508a1.838,1.838,0,0,0-1.837-1.835,1.837,1.837,0,0,1-1.839-1.835A1.838,1.838,0,0,0,192.992,0h-7.35a1.837,1.837,0,0,0-1.834,1.838,1.835,1.835,0,0,1-1.836,1.835,1.839,1.839,0,0,0-1.838,1.835V23.876a1.839,1.839,0,0,0,3.677,0Zm0-14.7a1.833,1.833,0,0,1,1.834-1.832h7.348a1.834,1.834,0,0,1,1.834,1.832V12.86a1.834,1.834,0,0,1-1.834,1.832h-7.348a1.832,1.832,0,0,1-1.834-1.832Z" transform="translate(-65.73 0)" fill="#333"/>
      <path id="Path_46" data-name="Path 46" d="M13.4,25.714a1.836,1.836,0,0,0,1.837-1.838,1.835,1.835,0,0,1,1.837-1.835,1.837,1.837,0,0,0,1.839-1.835V16.527a1.836,1.836,0,0,0-1.836-1.835,1.835,1.835,0,1,1,0-3.67,1.837,1.837,0,0,0,1.839-1.835V5.508a1.838,1.838,0,0,0-1.836-1.835,1.837,1.837,0,0,1-1.839-1.835A1.838,1.838,0,0,0,13.4,0H2.375A1.838,1.838,0,0,0,.539,1.838V23.876a1.838,1.838,0,0,0,1.836,1.838ZM4.214,5.508A1.835,1.835,0,0,1,6.049,3.675H13.4a1.836,1.836,0,0,1,1.837,1.833V9.184A1.836,1.836,0,0,1,13.4,11.019H6.049A1.835,1.835,0,0,1,4.214,9.184Zm0,11.019a1.838,1.838,0,0,1,1.835-1.835H13.4a1.838,1.838,0,0,1,1.837,1.835V20.2A1.837,1.837,0,0,1,13.4,22.041H6.049A1.836,1.836,0,0,1,4.214,20.2Z" transform="translate(-0.197 0)" fill="#333"/>
      <path id="Path_47" data-name="Path 47" d="M57.511,81.231a1.574,1.574,0,0,0,1.574-1.576,1.574,1.574,0,0,1,1.574-1.573,1.575,1.575,0,0,0,1.576-1.573V73.357a1.574,1.574,0,0,0-1.574-1.573,1.573,1.573,0,1,1,0-3.146,1.575,1.575,0,0,0,1.576-1.573V63.911a1.575,1.575,0,0,0-1.574-1.573,1.575,1.575,0,0,1-1.576-1.573,1.575,1.575,0,0,0-1.574-1.576H48.065a1.576,1.576,0,0,0-1.574,1.576v18.89a1.576,1.576,0,0,0,1.574,1.576Zm-7.87-17.32a1.573,1.573,0,0,1,1.573-1.571h6.3a1.573,1.573,0,0,1,1.574,1.571v3.151a1.574,1.574,0,0,1-1.574,1.573h-6.3a1.574,1.574,0,0,1-1.573-1.573Zm0,9.445a1.575,1.575,0,0,1,1.573-1.573h6.3a1.575,1.575,0,0,1,1.574,1.573v3.151a1.574,1.574,0,0,1-1.574,1.576h-6.3a1.574,1.574,0,0,1-1.573-1.576Z" transform="translate(-16.964 -21.598)" fill="red"/>
      <path id="Path_48" data-name="Path 48" d="M234.075,81.231a1.574,1.574,0,0,0,1.574-1.576,1.574,1.574,0,0,1,1.574-1.573A1.575,1.575,0,0,0,238.8,76.51v-12.6a1.575,1.575,0,0,0-1.573-1.573,1.575,1.575,0,0,1-1.576-1.573,1.575,1.575,0,0,0-1.574-1.576h-9.447a1.574,1.574,0,0,0-1.574,1.576v18.89a1.574,1.574,0,0,0,1.574,1.576ZM226.2,63.911a1.573,1.573,0,0,1,1.574-1.571h6.3a1.573,1.573,0,0,1,1.574,1.571v12.6a1.575,1.575,0,0,1-1.574,1.576h-6.3a1.574,1.574,0,0,1-1.574-1.576Z" transform="translate(-81.392 -21.598)" fill="red"/>
      <path id="Path_49" data-name="Path 49" d="M95.639,81.23a1.574,1.574,0,1,0,0-3.148H87.768a1.574,1.574,0,0,1-1.574-1.576V73.356a1.575,1.575,0,0,1,1.574-1.573h4.723a1.574,1.574,0,0,0,0-3.148H87.768a1.573,1.573,0,0,1-1.574-1.573V63.91a1.573,1.573,0,0,1,1.574-1.571h7.871a1.575,1.575,0,0,0,0-3.151H84.617a1.574,1.574,0,0,0-1.573,1.576v18.89a1.574,1.574,0,0,0,1.573,1.576Z" transform="translate(-30.302 -21.598)" fill="red"/>
      <path id="Path_50" data-name="Path 50" d="M158.149,25.714a1.836,1.836,0,1,0,0-3.673h-9.182a1.837,1.837,0,0,1-1.837-1.838V16.527a1.837,1.837,0,0,1,1.837-1.835h5.51a1.836,1.836,0,0,0,0-3.673h-5.51a1.836,1.836,0,0,1-1.837-1.835V5.508a1.835,1.835,0,0,1,1.837-1.832h9.182a1.838,1.838,0,0,0,0-3.676H145.29a1.836,1.836,0,0,0-1.834,1.839V23.876a1.836,1.836,0,0,0,1.834,1.838Z" transform="translate(-52.346 0)" fill="#333"/>
      <path id="Path_51" data-name="Path 51" d="M126.755,25.714a1.837,1.837,0,0,0,0-3.673h-7.348a1.836,1.836,0,0,1-1.835-1.835V1.838a1.838,1.838,0,1,0-3.675,0V23.879a1.835,1.835,0,0,0,1.837,1.835Z" transform="translate(-41.56 0)" fill="#333"/>
      <path id="Path_52" data-name="Path 52" d="M201.912,81.231a1.573,1.573,0,0,0,1.574-1.575V60.763a1.574,1.574,0,0,0-3.149,0v12.6a1.574,1.574,0,1,1-3.149,0,1.572,1.572,0,0,0-1.573-1.575,1.575,1.575,0,0,1-1.576-1.573,1.574,1.574,0,0,0-1.573-1.575,1.574,1.574,0,0,1-1.574-1.573v-6.3a1.575,1.575,0,0,0-3.151,0V79.656a1.575,1.575,0,0,0,3.151,0v-6.3a1.573,1.573,0,0,1,3.147,0,1.575,1.575,0,0,0,1.573,1.576,1.574,1.574,0,0,1,1.573,1.573,1.573,1.573,0,0,0,1.574,1.573,1.576,1.576,0,0,1,1.576,1.576,1.575,1.575,0,0,0,1.575,1.575" transform="translate(-68.506 -21.598)" fill="red"/>
      <path id="Path_53" data-name="Path 53" d="M232.445,25.713a1.836,1.836,0,0,0,1.837-1.837V1.835a1.837,1.837,0,0,0-3.674,0V16.53a1.837,1.837,0,1,1-3.673,0,1.834,1.834,0,0,0-1.834-1.838,1.837,1.837,0,0,1-1.839-1.835,1.837,1.837,0,0,0-1.835-1.837,1.837,1.837,0,0,1-1.837-1.835V1.835a1.838,1.838,0,0,0-3.675,0V23.876a1.838,1.838,0,0,0,3.675,0V16.53a1.836,1.836,0,0,1,3.672,0,1.837,1.837,0,0,0,1.835,1.838,1.835,1.835,0,0,1,1.835,1.835,1.836,1.836,0,0,0,1.837,1.835,1.839,1.839,0,0,1,1.839,1.839,1.837,1.837,0,0,0,1.837,1.837" transform="translate(-78.786 0)" fill="#333"/>
      <path id="Path_54" data-name="Path 54" d="M38.7,3.673a1.836,1.836,0,0,0-1.838,1.833v14.7A1.836,1.836,0,0,0,38.7,22.038a1.836,1.836,0,0,1,1.834,1.838,1.839,1.839,0,0,0,1.836,1.837h7.351a1.835,1.835,0,0,0,1.835-1.837,1.837,1.837,0,0,1,1.837-1.838,1.837,1.837,0,0,0,1.837-1.832V5.506A1.835,1.835,0,0,0,53.4,3.673a1.836,1.836,0,0,1-1.839-1.835A1.836,1.836,0,0,0,49.723,0H42.372a1.837,1.837,0,0,0-1.836,1.835A1.835,1.835,0,0,1,38.7,3.673m11.019,0a1.836,1.836,0,0,1,1.835,1.835V20.2a1.833,1.833,0,0,1-1.835,1.832H42.375A1.834,1.834,0,0,1,40.539,20.2V5.511a1.837,1.837,0,0,1,1.837-1.835Z" transform="translate(-13.451 0)" fill="#333"/>
      <path id="Path_55" data-name="Path 55" d="M77.99,3.673a1.836,1.836,0,0,0-1.838,1.833v14.7a1.836,1.836,0,0,0,1.838,1.832,1.836,1.836,0,0,1,1.834,1.838,1.839,1.839,0,0,0,1.836,1.837h7.351a1.835,1.835,0,0,0,1.834-1.837,1.837,1.837,0,0,1,1.837-1.838,1.837,1.837,0,0,0,1.837-1.832V5.506a1.835,1.835,0,0,0-1.835-1.833,1.836,1.836,0,0,1-1.839-1.835A1.836,1.836,0,0,0,89.011,0H81.66a1.837,1.837,0,0,0-1.836,1.835A1.835,1.835,0,0,1,77.99,3.673m11.019,0a1.836,1.836,0,0,1,1.835,1.835V20.2a1.833,1.833,0,0,1-1.835,1.832H81.663A1.834,1.834,0,0,1,79.827,20.2V5.511a1.837,1.837,0,0,1,1.837-1.835Z" transform="translate(-27.788 0)" fill="#333"/>
      <path id="Path_56" data-name="Path 56" d="M154,62.338a1.573,1.573,0,0,0-1.575,1.571v12.6A1.573,1.573,0,0,0,154,78.08a1.574,1.574,0,0,1,1.573,1.576,1.576,1.576,0,0,0,1.574,1.575h6.3a1.574,1.574,0,0,0,1.573-1.575A1.574,1.574,0,0,1,166.6,78.08a1.575,1.575,0,0,0,1.575-1.57v-12.6a1.573,1.573,0,0,0-1.573-1.571,1.574,1.574,0,0,1-1.576-1.573,1.574,1.574,0,0,0-1.573-1.576h-6.3a1.575,1.575,0,0,0-1.574,1.573A1.573,1.573,0,0,1,154,62.338m9.445,0a1.574,1.574,0,0,1,1.573,1.573V76.507a1.571,1.571,0,0,1-1.573,1.57h-6.3a1.572,1.572,0,0,1-1.574-1.57V63.914a1.575,1.575,0,0,1,1.574-1.573Z" transform="translate(-55.621 -21.598)" fill="red"/>
      <path id="Path_57" data-name="Path 57" d="M131.288,68.635a1.574,1.574,0,0,0,1.573-1.573v-6.3a1.574,1.574,0,0,0-3.148,0v6.3a1.574,1.574,0,0,1-1.574,1.571,1.576,1.576,0,0,0-1.577,1.575,1.573,1.573,0,1,1-3.147,0,1.573,1.573,0,0,0-1.573-1.575,1.573,1.573,0,0,1-1.574-1.571v-6.3a1.575,1.575,0,0,0-3.151,0v6.3a1.573,1.573,0,0,0,1.573,1.573,1.572,1.572,0,0,1,1.576,1.573,1.576,1.576,0,0,0,1.574,1.576,1.575,1.575,0,0,1,1.574,1.573v6.3a1.574,1.574,0,0,0,3.149,0v-6.3a1.574,1.574,0,0,1,1.574-1.573,1.575,1.575,0,0,0,1.575-1.573,1.575,1.575,0,0,1,1.574-1.575" transform="translate(-42.736 -21.598)" fill="red"/>
      <path id="Path_58" data-name="Path 58" d="M0,76.231a6.863,6.863,0,0,1,4.039-6.355A8.069,8.069,0,0,1,2,64.96,5.356,5.356,0,0,1,7.67,59.67a5.432,5.432,0,0,1,5.2,3.318L10.8,64.053A3.425,3.425,0,0,0,7.545,61.8a2.908,2.908,0,0,0-3.068,3.068v.251c0,1.315.626,2.41,2.223,4.414l2.817,3.475L11.8,75.824h.157a53.665,53.665,0,0,0,.407-5.854H16.78v2.1H14.432a22.415,22.415,0,0,1-1.127,5.322l3.82,4.508H14.151l-2.724-3.224h-.156c-.6,2.16-2.442,3.6-5.26,3.6A5.723,5.723,0,0,1,0,76.231m10.675,1.691L5.228,71.347a5.053,5.053,0,0,0-2.63,4.54v.469c0,2.254,1.66,3.694,4.07,3.694a4.442,4.442,0,0,0,4.008-2.129" transform="translate(0 -21.773)" fill="red"/>
    </g>
  </g>
</svg>
