<svg id="Group_4" data-name="Group 4" xmlns="http://www.w3.org/2000/svg" xmlns:xlink="http://www.w3.org/1999/xlink" width="314.703" height="361.42" viewBox="0 0 314.703 361.42">
  <defs>
    <clipPath id="clip-path">
      <rect id="Rectangle_3" data-name="Rectangle 3" width="314.703" height="361.42" fill="none"/>
    </clipPath>
  </defs>
  <g id="Group_3" data-name="Group 3" clip-path="url(#clip-path)">
    <path id="Path_15" data-name="Path 15" d="M63.354,133.386A121.294,121.294,0,1,1,184.648,254.68,121.294,121.294,0,0,1,63.354,133.386m254.681,0A133.387,133.387,0,1,0,184.648,266.774,133.388,133.388,0,0,0,318.035,133.386" transform="translate(-27.297 0.001)" fill-rule="evenodd"/>
    <path id="Path_16" data-name="Path 16" d="M205.332,38.842A115.229,115.229,0,1,0,320.561,154.07,115.229,115.229,0,0,0,205.332,38.842M101.563,154.071c0-55.987,46.459-101.375,103.769-101.375S309.1,98.084,309.1,154.071,262.642,255.445,205.332,255.445,101.563,210.058,101.563,154.071" transform="translate(-47.98 -20.684)" fill="#ff2525" fill-rule="evenodd"/>
    <path id="Path_17" data-name="Path 17" d="M314.721,450.416V459.6C264.546,491.962,213.747,524.38,157.5,524.38c-52.233,0-105.155-32.326-152.653-61.577,2.587,1.593,5.521,3.4-4.566-2.8v-9.128a4.176,4.176,0,0,1,2.2.621c16.393,10.077-3.3-2.018,5.57,3.445,46.822,28.837,99.1,61.033,149.45,61.033,54.355,0,104.551-32.381,154.171-64.391l.784-.506a4.166,4.166,0,0,1,2.265-.664m0,29.475v7.821l-4.366,2.209C260.669,515.079,212.044,539.7,157.5,539.7c-50.846,0-101.756-24.722-148.969-47.648q-4.144-2.012-8.25-4v-7.786a3.677,3.677,0,0,1,1.6.367q4.9,2.365,9.853,4.776c46.47,22.565,96.577,46.9,145.762,46.9,52.818,0,100.653-24.22,149.531-48.968l6.027-3.049a3.668,3.668,0,0,1,1.661-.4m0,29.465v6.6c-8.492,3.15-8.957,3.325-9.777,3.631-48.637,18.154-94.921,35.431-147.443,35.431-49.191,0-97.91-17.51-144.468-34.242-3.383-1.216-6.733-2.42-12.751-4.561v-6.57a3.179,3.179,0,0,1,1.06.182c2.474.879,8.152,2.92,13.836,4.963,46.015,16.537,94.166,33.843,142.323,33.843,51.438,0,97.168-17.07,145.222-35.007,6.374-2.379,8.61-3.223,10.887-4.068a3.193,3.193,0,0,1,1.11-.2m0,29.485v5.437q-7.525,1.82-14.919,3.637c-47.487,11.621-91.621,22.422-142.3,22.422-47.74,0-94.441-11.045-140.256-21.881-5.94-1.4-11.869-2.807-16.962-3.992v-5.438a2.688,2.688,0,0,1,.6.068c6.46,1.5,12.014,2.815,17.582,4.132,45.506,10.763,91.894,21.734,139.037,21.734,50.106,0,93.91-10.719,141.041-22.254q7.709-1.886,15.548-3.789a2.665,2.665,0,0,1,.631-.076m0,29.469v4.378c-6.521.764-13.5,1.6-20.375,2.423C248.3,580.625,206.3,585.655,157.5,585.655c-46.333,0-91.153-5.212-136.145-10.444-7.174-.835-14.351-1.67-21.073-2.432V568.4a2.284,2.284,0,0,1,.239.013c7.439.843,14.389,1.651,21.329,2.459,44.844,5.215,89.516,10.41,135.65,10.41,48.575,0,90.441-5.014,136.333-10.51,6.589-.789,13.256-1.588,20.639-2.452a2.224,2.224,0,0,1,.248-.014m0,29.479v3.348h0c-27.687-.084-53.025-.127-78.425-.148-17.336-.014-46.643-.014-78.795-.014-30.993,0-56.709.014-78.818.038-25.989.029-51.908.072-78.4.124v-3.348c26.492-.052,52.411-.095,78.4-.123,29.867-.033,56.269-.052,78.818-.052,23.715,0,45.332,0,78.795.028,25.4.021,50.738.064,78.425.147Z" transform="translate(-0.151 -239.848)" fill-rule="evenodd"/>
    <path id="Path_18" data-name="Path 18" d="M314.721,450.416V459.6C264.546,491.962,213.747,524.38,157.5,524.38c-52.233,0-105.155-32.326-152.653-61.577,2.587,1.593,5.521,3.4-4.566-2.8v-9.128a4.176,4.176,0,0,1,2.2.621c16.393,10.077-3.3-2.018,5.57,3.445,46.822,28.837,99.1,61.033,149.45,61.033,54.355,0,104.551-32.381,154.171-64.391l.784-.506A4.166,4.166,0,0,1,314.721,450.416Zm0,29.475v7.821l-4.366,2.209C260.669,515.079,212.044,539.7,157.5,539.7c-50.846,0-101.756-24.722-148.969-47.648q-4.144-2.012-8.25-4v-7.786a3.677,3.677,0,0,1,1.6.367q4.9,2.365,9.853,4.776c46.47,22.565,96.577,46.9,145.762,46.9,52.818,0,100.653-24.22,149.531-48.968l6.027-3.049A3.668,3.668,0,0,1,314.721,479.891Zm0,29.465v6.6c-8.492,3.15-8.957,3.325-9.777,3.631-48.637,18.154-94.921,35.431-147.443,35.431-49.191,0-97.91-17.51-144.468-34.242-3.383-1.216-6.733-2.42-12.751-4.561v-6.57a3.179,3.179,0,0,1,1.06.182c2.474.879,8.152,2.92,13.836,4.963,46.015,16.537,94.166,33.843,142.323,33.843,51.438,0,97.168-17.07,145.222-35.007,6.374-2.379,8.61-3.223,10.887-4.068A3.193,3.193,0,0,1,314.721,509.356Zm0,29.485v5.437q-7.525,1.82-14.919,3.637c-47.487,11.621-91.621,22.422-142.3,22.422-47.74,0-94.441-11.045-140.256-21.881-5.94-1.4-11.869-2.807-16.962-3.992v-5.438a2.688,2.688,0,0,1,.6.068c6.46,1.5,12.014,2.815,17.582,4.132,45.506,10.763,91.894,21.734,139.037,21.734,50.106,0,93.91-10.719,141.041-22.254q7.709-1.886,15.548-3.789A2.665,2.665,0,0,1,314.721,538.841Zm0,29.469v4.378c-6.521.764-13.5,1.6-20.375,2.423C248.3,580.625,206.3,585.655,157.5,585.655c-46.333,0-91.153-5.212-136.145-10.444-7.174-.835-14.351-1.67-21.073-2.432V568.4a2.284,2.284,0,0,1,.239.013c7.439.843,14.389,1.651,21.329,2.459,44.844,5.215,89.516,10.41,135.65,10.41,48.575,0,90.441-5.014,136.333-10.51,6.589-.789,13.256-1.588,20.639-2.452A2.224,2.224,0,0,1,314.721,568.31Zm0,29.479v3.348h0c-27.687-.084-53.025-.127-78.425-.148-17.336-.014-46.643-.014-78.795-.014-30.993,0-56.709.014-78.818.038-25.989.029-51.908.072-78.4.124v-3.348c26.492-.052,52.411-.095,78.4-.123,29.867-.033,56.269-.052,78.818-.052,23.715,0,45.332,0,78.795.028,25.4.021,50.738.064,78.425.147Z" transform="translate(-0.151 -239.848)" fill="none" stroke="#000" stroke-width="0.567"/>
  </g>
</svg>
