<svg xmlns="http://www.w3.org/2000/svg" viewBox="50 100 500 600">
  <style>
    .circle1 {
      animation: bounce1 1s ease-in-out infinite;
      transform-origin: center;
    }

    .circle2 {
      animation: bounce2 1s ease-in-out infinite;
      transform-origin: center;
    }

    @keyframes bounce1 {
      0%, 100% { transform: translateY(0); }
      50% { transform: translateY(-5px); }
    }

    @keyframes bounce2 {
      0%, 100% { transform: translateY(0); }
      50% { transform: translateY(-8px); }
    }

    .st0{fill-rule:evenodd;clip-rule:evenodd;fill:#010101;}
    .st1{fill-rule:evenodd;clip-rule:evenodd;fill:#D44227;}
    .st2{fill-rule:evenodd;clip-rule:evenodd;fill:#010101;stroke:#010101;stroke-width:0.5669;stroke-miterlimit:22.9256;}
  </style>

  <!-- Outer circle (black) -->
  <g class="circle1">
    <path class="st0" d="M157.28,337.53c0-82.53,66.91-149.44,149.44-149.44S456.16,255,456.16,337.53
      c0,82.53-66.91,149.44-149.44,149.44S157.28,420.06,157.28,337.53z M471.06,337.53
      c0-90.76-73.58-164.34-164.34-164.34c-90.76,0-164.34,73.58-164.34,164.34
      c0,90.76,73.58,164.34,164.34,164.34C397.48,501.87,471.06,428.29,471.06,337.53z"/>
  </g>

  <!-- Inner circle (red) -->
  <g class="circle2">
    <path class="st1" d="M306.72,195.56c-78.41,0-141.97,63.56-141.97,141.97c0,78.41,63.56,141.97,141.97,141.97
      c78.41,0,141.97-63.56,141.97-141.97C448.69,259.12,385.13,195.56,306.72,195.56z
      M178.87,337.53c0-68.98,57.24-124.9,127.85-124.9c70.61,0,127.85,55.92,127.85,124.9
      c0,68.98-57.24,124.9-127.85,124.9C236.11,462.43,178.87,406.51,178.87,337.53z"/>
  </g>

  <!-- Wave lines below -->
  <path class="st2" d="M500.42,432.62v11.31c-61.82,39.88-124.41,79.81-193.7,79.81
    c-64.35,0-129.56-39.83-188.08-75.87c3.19,1.96,6.8,4.19-5.63-3.45v-11.25
    c0.93,0,1.86,0.25,2.71,0.77c20.2,12.42-4.07-2.49,6.86,4.24
    c57.69,35.53,122.09,75.2,184.13,75.2c66.97,0,128.81-39.89,189.94-79.33
    l0.97-0.62C498.5,432.88,499.46,432.62,500.42,432.62z M500.42,468.93v9.64
    l-5.38,2.72c-61.21,30.99-121.12,61.33-188.32,61.33
    c-62.64,0-125.37-30.46-183.54-58.7c-3.4-1.65-6.79-3.3-10.16-4.93v-9.59
    c0.66,0,1.34,0.14,1.98,0.45c4.02,1.94,8.07,3.91,12.14,5.88
    c57.25,27.8,118.99,57.78,179.59,57.78c65.07,0,124.01-29.84,184.23-60.33
    l7.43-3.76C499.03,469.09,499.73,468.93,500.42,468.93z
    M500.42,505.24v8.13c-10.46,3.88-11.04,4.1-12.05,4.47
    c-59.92,22.37-116.95,43.65-181.66,43.65
    c-60.61,0-120.63-21.57-177.99-42.19c-4.17-1.5-8.29-2.98-15.71-5.62v-8.09
    c0.43,0,0.87,0.07,1.31,0.22c3.05,1.08,10.04,3.6,17.05,6.11
    c56.69,20.37,116.02,41.7,175.35,41.7
    c63.37,0,119.72-21.03,178.92-43.13c7.85-2.93,10.61-3.97,13.41-5.01
    C499.5,505.32,499.97,505.24,500.42,505.24z
    M500.42,541.56v6.7c-6.18,1.5-12.3,2.99-18.38,4.48
    c-58.51,14.32-112.88,27.62-175.32,27.62
    c-58.82,0-116.36-13.61-172.8-26.96c-7.32-1.73-14.62-3.46-20.9-4.92v-6.7
    c0.24,0,0.49,0.03,0.74,0.08c7.96,1.85,14.8,3.47,21.66,5.09
    c56.07,13.26,113.22,26.78,171.3,26.78
    c61.73,0,115.7-13.21,173.77-27.42c6.33-1.55,12.71-3.11,19.16-4.67
    C499.9,541.59,500.16,541.56,500.42,541.56z
    M500.42,577.87v5.39c-8.03,0.94-16.63,1.97-25.1,2.99
    c-56.73,6.79-108.47,12.99-168.6,12.99
    c-57.09,0-112.3-6.42-167.74-12.87c-8.84-1.03-17.68-2.06-25.96-3v-5.39
    c0.1,0,0.2,0.01,0.29,0.02c9.17,1.04,17.73,2.03,26.28,3.03
    c55.25,6.43,110.29,12.83,167.13,12.83
    c59.85,0,111.43-6.18,167.97-12.95c8.12-0.97,16.33-1.96,25.43-3.02
    C500.22,577.88,500.32,577.87,500.42,577.87z
    M500.42,614.19v4.12h0
    c-34.11-0.1-65.33-0.16-96.62-0.18
    c-21.36-0.02-57.47-0.02-97.08-0.02
    c-38.19,0-69.87,0.02-97.11,0.05
    c-32.02,0.04-63.95,0.09-96.59,0.15v-4.12
    c32.64-0.06,64.57-0.12,96.59-0.15
    c36.8-0.04,69.33-0.06,97.11-0.06
    c29.22,0,55.85,0,97.08,0.03
    C435.09,614.03,466.31,614.09,500.42,614.19z"/>
</svg>