<svg version="1.1" id="Layer_1" xmlns="http://www.w3.org/2000/svg" 
     xmlns:xlink="http://www.w3.org/1999/xlink" x="0px" y="0px"
     viewBox="50 100 500 600" style="enable-background:new 0 0 550 792;" xml:space="preserve">

<style type="text/css">
    .st0 { fill-rule:evenodd; clip-rule:evenodd; fill:#ffffff; }
    .st1 { fill-rule:evenodd; clip-rule:evenodd; fill:#D44227; }

    @keyframes pulse {
        0% { transform: scale(1); opacity: 1; }
        50% { transform: scale(1.02); opacity: 0.95; }
        100% { transform: scale(1); opacity: 1; }
    }

    .pulse-group {
        animation: pulse 1.4s ease-in-out infinite;
        transform-origin: 50% 50%;
    }
</style>

<g class="pulse-group">
<path class="st0" d="M351.97,266.61l20.68,20.68l5.83-5.83l-30.63-30.63l-30.63,30.63l5.83,5.83l20.68-20.68v52.54c1.36-0.07,2.74-0.11,4.12-0.11c1.38,0,2.76,0.04,4.12,0.11V266.61z M351.97,525.18l20.68-20.68l5.83,5.83l-30.63,30.63l-30.63-30.63l5.83-5.83l20.68,20.68v-52.54c1.36,0.07,2.74,0.11,4.12,0.11c1.38,0,2.76-0.04,4.12-0.11V525.18z"/>
<path class="st1" d="M416.07,285.99l7.57,28.25l7.96-2.13l-11.21-41.84l-41.84,11.21l2.13,7.96l28.26-7.57l-26.26,45.49c2.46,1.25,4.84,2.63,7.13,4.13L416.07,285.99z M286.78,509.92l28.25-7.57l2.13,7.96l-41.84,11.21l-11.21-41.84l7.96-2.13l7.57,28.25l26.27-45.5c2.3,1.5,4.67,2.88,7.13,4.13L286.78,509.92z"/>
<path class="st0" d="M461.88,334.82l-7.57,28.26l7.96,2.13l11.21-41.84l-41.84-11.21l-2.13,7.96l28.25,7.57l-45.5,26.27c1.5,2.3,2.88,4.67,4.13,7.13L461.88,334.82z M237.95,464.11l28.25,7.57l-2.13,7.96l-41.84-11.21l11.21-41.84l7.96,2.13l-7.57,28.26l45.49-26.26c1.25,2.46,2.63,4.84,4.13,7.13L237.95,464.11z"/>
<path class="st1" d="M477.14,400.01l-20.68,20.68l5.83,5.83l22.28-22.28v-16.69l-22.28-22.28l-5.83,5.83l20.68,20.68H424.6c0.07,1.36,0.11,2.74,0.11,4.12c0,1.38-0.04,2.76-0.11,4.12H477.14z M218.57,400.01l20.68,20.68l-5.83,5.83l-30.63-30.63l30.63-30.63l5.83,5.83l-20.68,20.68h52.54c-0.07,1.36-0.11,2.74-0.11,4.12c0,1.38,0.04,2.76,0.11,4.12H218.57z"/>
<path class="st0" d="M457.76,464.11l-28.25,7.57l2.13,7.96l41.84-11.21l-11.21-41.84l-7.96,2.13l7.57,28.25l-45.49-26.26c-1.25,2.46-2.63,4.83-4.13,7.13L457.76,464.11z M233.83,334.82l7.57,28.25l-7.96,2.13l-11.21-41.84l41.84-11.21l2.13,7.96l-28.25,7.57l45.5,26.27c-1.5,2.3-2.88,4.67-4.13,7.13L233.83,334.82z"/>
<path class="st1" d="M408.93,509.92l-28.26-7.57l-2.13,7.96l41.84,11.21l11.21-41.84l-7.96-2.13l-7.57,28.25l-26.27-45.5c-2.3,1.5-4.67,2.88-7.13,4.13L408.93,509.92z M279.64,285.99l-7.57,28.25l-7.96-2.13l11.21-41.84l41.84,11.21l-2.13,7.96l-28.25-7.57l26.26,45.49c-2.46,1.25-4.84,2.63-7.13,4.13L279.64,285.99z"/>
<path class="st1" d="M351.91,226.98l13.29-13.29l5.83,5.83l-23.23,23.23l-23.11-23.11l5.83-5.83l13.16,13.16V174.9c1.39-0.03,2.78-0.05,4.18-0.05c1.36,0,2.71,0.03,4.06,0.05V226.98z M343.67,616.89c1.39,0.03,2.78,0.05,4.18,0.05c1.36,0,2.71-0.03,4.06-0.05v-52.08l13.29,13.29l5.83-5.83l-23.23-23.23l-23.11,23.11l5.83,5.83l13.16-13.16V616.89z"/>
<path class="st0" d="M395.49,233.78l16.28-9.4l4.12,7.13l-28.46,16.43l-16.34-28.3l7.13-4.12l9.31,16.12l13.49-50.35c2.67,0.66,5.33,1.36,7.96,2.12L395.49,233.78z M286.6,608.34c2.63,0.76,5.29,1.46,7.96,2.12l13.49-50.36l9.4,16.27l7.13-4.12l-16.43-28.46l-28.3,16.34l4.12,7.13l16.12-9.31L286.6,608.34z"/>
<path class="st1" d="M435.83,251.64l18.15-4.86l2.13,7.96l-31.74,8.5l-8.46-31.57l7.96-2.13l4.82,17.98l26.06-45.14c2.41,1.33,4.79,2.7,7.14,4.12L435.83,251.64z M233.71,585.23c2.35,1.42,4.73,2.79,7.14,4.12l26.06-45.14l4.86,18.15l7.96-2.13l-8.5-31.74l-31.57,8.46l2.13,7.96l17.98-4.82L233.71,585.23z"/>
<path class="st0" d="M470.17,279.32h14.4v8.24H456.1v-32.68l8.24,0v18.61l20.23-20.23v11.65L470.17,279.32z M188.62,549.21c1.91,1.98,3.85,3.92,5.82,5.83l36.83-36.83V537h8.24v-32.86l-32.68,0l0,8.24l18.61,0L188.62,549.21z"/>
<path class="st1" d="M154.34,502.79c1.33,2.41,2.7,4.79,4.12,7.14l45.14-26.06l-4.86,18.15l7.96,2.13l8.5-31.74l-31.57-8.46l-2.13,7.96l17.98,4.82L154.34,502.79z"/>
<path class="st0" d="M133.25,449.07c0.66,2.67,1.36,5.33,2.12,7.96l50.37-13.5l-9.4,16.27l7.13,4.12l16.43-28.46l-28.3-16.34l-4.12,7.14l16.12,9.31L133.25,449.07z"/>
<path class="st1" d="M126.85,391.71c-0.03,1.39-0.05,2.78-0.05,4.18c0,1.36,0.03,2.71,0.05,4.06l52.08,0l-13.29,13.29l5.83,5.83l23.23-23.23l-23.11-23.11l-5.83,5.83l13.16,13.16L126.85,391.71z"/>
<path class="st0" d="M135.41,334.64c-0.76,2.63-1.46,5.29-2.12,7.96l50.36,13.49l-16.27,9.4l4.12,7.13l28.46-16.43l-16.34-28.3l-7.13,4.12l9.31,16.12L135.41,334.64z"/>
<path class="st1" d="M158.52,281.75c-1.42,2.35-2.79,4.73-4.12,7.13l45.14,26.06l-18.15,4.86l2.13,7.96l31.74-8.5l-8.46-31.57l-7.96,2.13l4.82,17.98L158.52,281.75z"/>
<path class="st0" d="M464.43,518.21l0,18.79h-8.24v-32.86l28.37,0v8.24h-14.31l14.31,14.31v11.65L464.43,518.21z M194.54,236.66c-1.98,1.91-3.92,3.85-5.83,5.83l36.83,36.83l-18.79,0v8.24h32.86l0-32.68l-8.24,0v18.62L194.54,236.66z"/>
<path class="st1" d="M428.8,544.21l-4.86,18.15l-7.96-2.13l8.5-31.74l31.57,8.46l-2.13,7.96l-17.98-4.82L462,585.23c-2.35,1.42-4.73,2.79-7.13,4.12L428.8,544.21z M240.96,202.38c-2.41,1.33-4.79,2.7-7.14,4.12l26.06,45.14l-18.15-4.86l-2.13,7.96l31.74,8.5l8.46-31.57l-7.96-2.13l-4.82,17.98L240.96,202.38z"/>
<path class="st0" d="M387.66,560.11l-9.4,16.27l-7.13-4.12l16.43-28.46l28.3,16.34l-4.12,7.13l-16.12-9.31l13.5,50.37c-2.63,0.76-5.29,1.46-7.96,2.12L387.66,560.11z M294.68,181.3c-2.67,0.66-5.33,1.36-7.96,2.12l13.5,50.37l-16.27-9.4l-4.12,7.13l28.45,16.43l16.34-28.3l-7.13-4.12l-9.31,16.12L294.68,181.3z"/>
</g>

</svg>