<svg xmlns="http://www.w3.org/2000/svg" width="303" height="300.908" viewBox="0 0 303 300.908">
  <g id="Group_22" data-name="Group 22" transform="translate(0)">
    <path id="Path_70" data-name="Path 70" d="M20.554,536.227v14.944h14.86L0,585.841l10.567,10.568L45.655,562.06v14.35H60.6V536.227Z" transform="translate(0 -295.5)" fill="#202823"/>
    <path id="Path_71" data-name="Path 71" d="M20.554,402.17v14.944h14.86L0,451.784l10.567,10.568L45.655,428v14.35H60.6V402.17Z" transform="translate(0 -221.625)" fill="#d23900"/>
    <path id="Path_72" data-name="Path 72" d="M20.554,268.114v14.945h14.86L0,317.727,10.567,328.3l35.088-34.349V308.3H60.6V268.114Z" transform="translate(0 -147.75)" fill="#ee4f1d"/>
    <path id="Path_73" data-name="Path 73" d="M20.554,134.057V149h14.86L0,183.67l10.567,10.568,35.088-34.349V174.24H60.6V134.057Z" transform="translate(0 -73.875)" fill="#ee4f1d"/>
    <path id="Path_74" data-name="Path 74" d="M20.554,0V14.946h14.86L0,49.614,10.567,60.182,45.655,25.834V40.183H60.6V0Z" fill="#ee4f1d"/>
    <path id="Path_75" data-name="Path 75" d="M155.541,536.227v14.944H170.4l-35.414,34.669,10.568,10.568,35.087-34.349v14.35h14.946V536.227Z" transform="translate(-74.388 -295.5)" fill="#d23900"/>
    <path id="Path_76" data-name="Path 76" d="M134.987,451.784,170.4,417.115H155.541V402.171h40.047v40.182H180.642V428l-35.087,34.349Z" transform="translate(-74.388 -221.625)" fill="#202823" fill-rule="evenodd"/>
    <path id="Path_77" data-name="Path 77" d="M134.987,317.727,170.4,283.058H155.541V268.114h40.047V308.3H180.642v-14.35L145.555,328.3Z" transform="translate(-74.388 -147.75)" fill="#d23900" fill-rule="evenodd"/>
    <path id="Path_78" data-name="Path 78" d="M134.987,183.67,170.4,149H155.541V134.057h40.047V174.24H180.642V159.89l-35.087,34.349Z" transform="translate(-74.388 -73.875)" fill="#d23900" fill-rule="evenodd"/>
    <path id="Path_79" data-name="Path 79" d="M155.541,0V14.946H170.4L134.987,49.614l10.568,10.568,35.087-34.348V40.183h14.946V0Z" transform="translate(-74.388)" fill="#ee4f1d"/>
    <path id="Path_80" data-name="Path 80" d="M290.531,536.227v14.944h14.861l-35.414,34.669,10.567,10.568,35.087-34.349v14.35h14.946V536.227Z" transform="translate(-148.777 -295.5)" fill="#ee4f1d"/>
    <path id="Path_81" data-name="Path 81" d="M269.977,451.784l35.414-34.669H290.531V402.171h40.046v40.182H315.631V428l-35.087,34.349Z" transform="translate(-148.777 -221.625)" fill="#d23900" fill-rule="evenodd"/>
    <path id="Path_82" data-name="Path 82" d="M269.977,317.727l35.414-34.669H290.531V268.114h40.046V308.3H315.631v-14.35L280.544,328.3Z" transform="translate(-148.777 -147.75)" fill="#202823" fill-rule="evenodd"/>
    <path id="Path_83" data-name="Path 83" d="M269.977,183.67,305.392,149H290.531V134.057h40.046V174.24H315.631V159.89l-35.087,34.349Z" transform="translate(-148.777 -73.875)" fill="#d23900" fill-rule="evenodd"/>
    <path id="Path_84" data-name="Path 84" d="M290.531,0V14.946h14.861L269.977,49.614l10.567,10.568,35.087-34.348V40.183h14.946V0Z" transform="translate(-148.777)" fill="#ee4f1d"/>
    <path id="Path_85" data-name="Path 85" d="M425.518,536.227v14.944h14.861l-35.415,34.669,10.569,10.568,35.086-34.349v14.35h14.946V536.227Z" transform="translate(-223.165 -295.5)" fill="#ee4f1d"/>
    <path id="Path_86" data-name="Path 86" d="M404.964,451.784l35.414-34.669H425.518V402.171h40.047v40.182H450.619V428l-35.087,34.349Z" transform="translate(-223.165 -221.625)" fill="#d23900" fill-rule="evenodd"/>
    <path id="Path_87" data-name="Path 87" d="M404.964,317.727l35.414-34.669H425.518V268.114h40.047V308.3H450.619v-14.35L415.533,328.3Z" transform="translate(-223.165 -147.75)" fill="#d23900" fill-rule="evenodd"/>
    <path id="Path_88" data-name="Path 88" d="M404.964,183.67,440.379,149H425.518V134.057h40.047V174.24H450.619V159.89l-35.087,34.349Z" transform="translate(-223.165 -73.875)" fill="#202823" fill-rule="evenodd"/>
    <path id="Path_89" data-name="Path 89" d="M425.518,0V14.946h14.861L404.964,49.614l10.569,10.568,35.086-34.348V40.183h14.946V0Z" transform="translate(-223.165)" fill="#d23900"/>
    <path id="Path_90" data-name="Path 90" d="M560.508,536.227v14.944h14.855l-35.409,34.669,10.571,10.568,35.088-34.349v14.35h14.941V536.227Z" transform="translate(-297.554 -295.5)" fill="#ee4f1d"/>
    <path id="Path_91" data-name="Path 91" d="M560.508,402.17v14.944h14.855l-35.409,34.669,10.571,10.568L585.613,428v14.35h14.941V402.17Z" transform="translate(-297.554 -221.625)" fill="#ee4f1d"/>
    <path id="Path_92" data-name="Path 92" d="M560.508,268.114v14.945h14.855l-35.409,34.669L550.525,328.3l35.088-34.349V308.3h14.941V268.114Z" transform="translate(-297.554 -147.75)" fill="#ee4f1d"/>
    <path id="Path_93" data-name="Path 93" d="M560.508,134.057V149h14.855L539.954,183.67l10.571,10.568,35.088-34.349V174.24h14.941V134.057Z" transform="translate(-297.554 -73.875)" fill="#d23900"/>
    <path id="Path_94" data-name="Path 94" d="M560.508,0V14.946h14.855L539.954,49.614l10.571,10.568,35.088-34.348V40.183h14.941V0Z" transform="translate(-297.554)" fill="#202823"/>
  </g>
</svg>
